<svg width="152" height="151" viewBox="0 0 152 151" fill="none" xmlns="http://www.w3.org/2000/svg">
<path fill-rule="evenodd" clip-rule="evenodd" d="M76 150.875C85.8984 150.875 95.6998 148.925 104.845 145.137C113.99 141.349 122.299 135.797 129.298 128.798C136.297 121.799 141.849 113.49 145.637 104.345C149.425 95.1998 151.375 85.3984 151.375 75.5C151.375 65.6016 149.425 55.8002 145.637 46.6552C141.849 37.5103 136.297 29.201 129.298 22.2018C122.299 15.2026 113.99 9.65053 104.845 5.86258C95.6998 2.07463 85.8984 0.125 76 0.125C56.0093 0.125 36.8374 8.06627 22.7018 22.2018C8.56627 36.3374 0.625 55.5093 0.625 75.5C0.625 95.4907 8.56627 114.663 22.7018 128.798C36.8374 142.934 56.0093 150.875 76 150.875ZM74.057 105.985L115.932 55.735L103.068 45.015L67.0555 88.2216L48.4211 69.5789L36.5789 81.4211L61.7039 106.546L68.1861 113.028L74.057 105.985Z" fill="#EF233C"/>
</svg>
